<?xml version="1.0" standalone="no"?>
<!DOCTYPE svg PUBLIC "-//W3C//DTD SVG 20010904//EN"
 "http://www.w3.org/TR/2001/REC-SVG-20010904/DTD/svg10.dtd">
<svg version="1.0" xmlns="http://www.w3.org/2000/svg"
 width="16" height="16" viewBox="0 0 30.000000 30.000000"
 preserveAspectRatio="xMidYMid meet">

<g transform="translate(0.000000,30.000000) scale(0.100000,-0.100000)" 
 fill="white" stroke="none">
<path d="M95 160 c-21 -55 -42 -100 -47 -100 -4 0 -8 -4 -8 -10 0 -5 14 -10
31 -10 24 0 30 4 25 15 -12 32 5 45 55 45 50 0 55 -5 50 -48 -1 -7 10 -12 29
-12 16 0 30 5 30 10 0 6 -4 10 -8 10 -4 0 -25 39 -47 88 -40 91 -52 112 -65
112 -4 0 -25 -45 -45 -100z m70 4 c19 -47 20 -44 -19 -44 l-34 0 15 40 c9 22
18 40 19 40 2 0 11 -16 19 -36z"/>
<path d="M200 230 c0 -5 23 -10 50 -10 28 0 50 5 50 10 0 6 -22 10 -50 10 -27
0 -50 -4 -50 -10z"/>
</g>
</svg>
