<?xml version="1.0" standalone="no"?>
<!DOCTYPE svg PUBLIC "-//W3C//DTD SVG 20010904//EN"
 "http://www.w3.org/TR/2001/REC-SVG-20010904/DTD/svg10.dtd">
<svg version="1.0" xmlns="http://www.w3.org/2000/svg"
 width="16" height="16" viewBox="0 0 30.000000 30.000000"
 preserveAspectRatio="xMidYMid meet">

<g transform="translate(0.000000,30.000000) scale(0.100000,-0.100000)"
fill="white" stroke="none">
<path d="M240 260 c0 -13 -7 -20 -20 -20 -11 0 -20 -4 -20 -10 0 -5 9 -10 20
-10 13 0 20 -7 20 -20 0 -11 5 -20 10 -20 6 0 10 9 10 20 0 13 7 20 20 20 11
0 20 5 20 10 0 6 -9 10 -20 10 -13 0 -20 7 -20 20 0 11 -4 20 -10 20 -5 0 -10
-9 -10 -20z"/>
<path d="M95 160 c-21 -55 -42 -100 -47 -100 -4 0 -8 -4 -8 -10 0 -5 14 -10
31 -10 24 0 30 4 25 15 -12 32 5 45 55 45 50 0 55 -5 50 -48 -1 -7 10 -12 29
-12 16 0 30 5 30 10 0 6 -4 10 -8 10 -4 0 -25 39 -47 88 -40 91 -52 112 -65
112 -4 0 -25 -45 -45 -100z m70 4 c19 -47 20 -44 -19 -44 l-34 0 15 40 c9 22
18 40 19 40 2 0 11 -16 19 -36z"/>
</g>
</svg>
